<?xml version="1.0" standalone="no"?><!DOCTYPE svg PUBLIC "-//W3C//DTD SVG 1.1//EN" "http://www.w3.org/Graphics/SVG/1.1/DTD/svg11.dtd"><svg t="1677813182307" class="icon" viewBox="0 0 1024 1024" version="1.1" xmlns="http://www.w3.org/2000/svg" p-id="13768" xmlns:xlink="http://www.w3.org/1999/xlink" width="24" height="24"><path d="M954.251262 664.841949C891.770673 837.008801 726.748403 960 533 960 285.576432 960 85 759.423568 85 512 85 264.576432 285.576432 64 533 64 648.60134 64 753.97619 107.784814 833.445414 179.675309L833.445414 179.675309 920.90349 92.046417C936.506798 76.412633 949.085793 81.655289 948.999559 103.731121L948.133287 325.496774C948.04701 347.583842 930.075095 365.52405 907.985871 365.567362L687.396976 365.999889C665.310448 366.043196 660.059065 353.400303 675.658068 337.770834L765.52474 247.728641C703.511392 193.122269 622.123756 160 533 160 338.595768 160 181 317.595768 181 512 181 706.404232 338.595768 864 533 864 685.659885 864 815.621847 766.818637 864.396247 630.94555L864.768522 631.045301C870.421696 610.828711 888.979132 596 911 596 937.509668 596 959 617.490332 959 644 959 651.468466 957.294321 658.538549 954.251262 664.841949Z" fill="#ffffff" p-id="13769"></path></svg>