<?xml version="1.0" standalone="no"?><!DOCTYPE svg PUBLIC "-//W3C//DTD SVG 1.1//EN" "http://www.w3.org/Graphics/SVG/1.1/DTD/svg11.dtd"><svg t="1654157404441" class="icon" viewBox="0 0 1024 1024" version="1.1" xmlns="http://www.w3.org/2000/svg" p-id="8374" xmlns:xlink="http://www.w3.org/1999/xlink" width="64" height="64"><defs><style type="text/css">@font-face { font-family: feedback-iconfont; src: url("//at.alicdn.com/t/font_1031158_u69w8yhxdu.woff2?t=1630033759944") format("woff2"), url("//at.alicdn.com/t/font_1031158_u69w8yhxdu.woff?t=1630033759944") format("woff"), url("//at.alicdn.com/t/font_1031158_u69w8yhxdu.ttf?t=1630033759944") format("truetype"); }
</style></defs><path d="M941.728 137.152c0-14.848-9.152-28-22.272-33.728-13.728-5.696-29.728-2.848-40 8l-74.304 73.728C724.576 109.152 615.456 64 502.88 64 261.152 64 64 261.152 64 502.88c0 241.696 197.152 438.848 438.88 438.848 130.848 0 254.272-57.728 337.696-158.304 5.728-7.424 5.728-18.272-1.12-24.544L761.152 680c-4-3.424-9.152-5.12-14.272-5.12-5.152 0.544-10.304 2.848-13.152 6.848-56 72.576-140 113.696-230.848 113.696-161.152 0-292.576-131.424-292.576-292.544 0-161.152 131.424-292.576 292.576-292.576 74.848 0 145.696 28.576 199.424 78.272l-78.848 78.848c-10.88 10.304-13.728 26.304-8 39.456 5.696 13.696 18.848 22.848 33.696 22.848h256c20 0 36.576-16.576 36.576-36.576v-256z" p-id="8375" fill="#1890ff"></path></svg>